<svg xmlns="http://www.w3.org/2000/svg" xmlns:xlink="http://www.w3.org/1999/xlink" width="160" height="39" viewBox="0 0 160 39">
    <defs>
        <path id="prefix__a" d="M0.254 0.129L7.684 0.129 7.684 15.102 0.254 15.102z"/>
    </defs>
    <g fill="none" fill-rule="evenodd">
        <path fill="#000" d="M2.758.388V28.12h27.86v-4.318L19.069.388H2.758zm1.482 1.64h13.58l11.14 22.397v.957H17.546v-4.04L15.615 19.9H4.24V2.027zM31.555.388L31.555 35.507 40.921 35.507 50.285 32.854 34.209 32.854 34.209.388z"/>
        <g>
            <path fill="#FECD07" d="M28.434 34.152c0-2.586-2.097-4.683-4.683-4.683s-4.683 2.097-4.683 4.683c0 .377.05.742.134 1.093H28.3c.084-.351.134-.716.134-1.093" transform="translate(0 .263)"/>
            <path fill="#FFF" d="M23.751 36.06c-1.052 0-1.908-.856-1.908-1.908s.856-1.908 1.908-1.908 1.908.856 1.908 1.908-.856 1.908-1.908 1.908M6.27 32.084c-1.141 0-2.069.928-2.069 2.068 0 1.14.928 2.068 2.068 2.068 1.14 0 2.069-.928 2.069-2.068 0-1.14-.928-2.068-2.069-2.068m0 .32c.966 0 1.748.783 1.748 1.748S7.235 35.9 6.269 35.9c-.965 0-1.747-.783-1.747-1.748s.782-1.748 1.747-1.748" transform="translate(0 .263)"/>
            <path fill="#000" d="M0 24.137c0-1.451 1.176-2.628 2.628-2.628 1.45 0 2.627 1.177 2.627 2.628 0 1.45-1.177 2.628-2.627 2.628C1.176 26.765 0 25.588 0 24.137" transform="translate(0 .263)"/>
            <path fill="#FECD07" d="M7.284 18.7L6.269 9.803 7.479 9.803 8.962 16.202 14.269 16.554 14.269 18.7z" transform="translate(0 .263)"/>
            <path fill="#DEB306" d="M6.23 28.611c3.532 0 6.77 1.502 7.414 6.634h-1.98c.548-4.356-2.274-6.406-5.434-6.634M23.751 28.611c-3.531 0-6.77 1.502-7.414 6.634h1.981c-.549-4.356 2.273-6.406 5.433-6.634" transform="translate(0 .263)"/>
            <path fill="#000" d="M65.965 16.479c-.572-.647-1.334-1.172-2.286-1.572-.953-.4-2.039-.6-3.257-.6-1.791 0-3.096.339-3.915 1.015-.82.676-1.229 1.595-1.229 2.757 0 .61.11 1.11.329 1.5.219.39.557.729 1.014 1.015.457.285 1.043.533 1.758.743.714.21 1.557.419 2.529.628 1.085.229 2.061.486 2.928.772.867.286 1.605.643 2.215 1.071.61.43 1.076.948 1.4 1.558.324.61.486 1.371.486 2.286 0 .933-.182 1.743-.543 2.428-.362.686-.867 1.258-1.515 1.715-.648.457-1.419.795-2.314 1.014-.896.22-1.877.329-2.943.329-3.144 0-5.858-.98-8.144-2.943l1-1.629c.362.381.795.743 1.3 1.086.505.343 1.067.643 1.686.9s1.28.457 1.986.6c.705.143 1.447.214 2.229.214 1.619 0 2.881-.29 3.786-.871.904-.581 1.357-1.462 1.357-2.643 0-.629-.128-1.157-.386-1.586-.257-.429-.643-.8-1.157-1.115-.514-.314-1.153-.585-1.914-.814-.762-.228-1.649-.457-2.658-.686-1.067-.247-2-.504-2.8-.772-.8-.266-1.476-.6-2.029-1-.553-.4-.967-.88-1.243-1.443-.276-.561-.414-1.252-.414-2.071 0-.933.176-1.767.528-2.5.353-.734.853-1.343 1.5-1.83.648-.485 1.41-.857 2.286-1.114.877-.257 1.848-.385 2.915-.385 1.352 0 2.557.205 3.615.614 1.057.41 2.014.986 2.871 1.729l-.971 1.6zM78.052 32.252c-.114.057-.281.134-.5.228-.22.096-.471.192-.757.286-.286.096-.61.182-.972.257-.362.076-.743.115-1.143.115-.42 0-.82-.057-1.2-.172-.381-.114-.714-.29-1-.528-.286-.238-.514-.538-.686-.9-.171-.362-.257-.781-.257-1.258V19.622h-2.058V18.08h2.058V13.05h1.943v5.03h3.429v1.542H73.48v10.116c.038.552.233.957.586 1.214.352.257.757.386 1.214.386.552 0 1.038-.09 1.457-.272.42-.18.686-.31.8-.386l.515 1.572zM84.681 31.766c1.01 0 1.938-.19 2.786-.571.847-.38 1.49-.886 1.929-1.515.171-.17.3-.357.386-.557.085-.2.128-.385.128-.557v-2.429c-.648-.247-1.32-.438-2.015-.571-.695-.133-1.405-.2-2.128-.2-1.372 0-2.486.285-3.343.857-.858.571-1.286 1.324-1.286 2.257 0 .458.09.886.271 1.286.18.4.429.748.743 1.043.314.296.69.529 1.13.7.437.171.904.257 1.4.257m-.458 1.486c-.705 0-1.358-.12-1.958-.357-.6-.238-1.124-.567-1.571-.986-.448-.418-.796-.91-1.043-1.471-.248-.562-.372-1.167-.372-1.815 0-.647.153-1.247.458-1.8.304-.552.733-1.029 1.285-1.429.553-.4 1.21-.71 1.972-.928.762-.22 1.6-.33 2.515-.33.761 0 1.533.068 2.314.201.781.133 1.477.324 2.086.571v-1.342c0-1.315-.371-2.358-1.114-3.13-.743-.771-1.772-1.157-3.087-1.157-.762 0-1.542.153-2.342.457-.8.306-1.61.743-2.43 1.315l-.685-1.286c1.924-1.295 3.79-1.943 5.6-1.943 1.867 0 3.334.524 4.401 1.571 1.067 1.048 1.6 2.496 1.6 4.344v6.715c0 .533.238.8.715.8v1.714c-.325.057-.572.086-.743.086-.496 0-.882-.123-1.158-.372-.276-.247-.424-.59-.443-1.028l-.057-1.172c-.686.896-1.548 1.582-2.586 2.058-1.038.476-2.157.714-3.357.714M106.683 32.966L101.197 25.337 97.996 28.309 97.996 32.966 96.053 32.966 96.053 12.107 97.996 12.107 97.996 26.28 106.368 18.108 108.569 18.108 102.482 24.194 108.797 32.966zM115.227 31.766c1.01 0 1.938-.19 2.786-.571.847-.38 1.49-.886 1.928-1.515.172-.17.3-.357.386-.557.086-.2.129-.385.129-.557v-2.429c-.648-.247-1.32-.438-2.015-.571-.695-.133-1.405-.2-2.128-.2-1.372 0-2.486.285-3.344.857-.857.571-1.286 1.324-1.286 2.257 0 .458.09.886.272 1.286.18.4.429.748.743 1.043.314.296.69.529 1.129.7.437.171.904.257 1.4.257m-.458 1.486c-.705 0-1.357-.12-1.957-.357-.6-.238-1.124-.567-1.572-.986-.447-.418-.795-.91-1.042-1.471-.248-.562-.372-1.167-.372-1.815 0-.647.152-1.247.457-1.8.305-.552.733-1.029 1.286-1.429.553-.4 1.21-.71 1.972-.928.762-.22 1.6-.33 2.515-.33.761 0 1.532.068 2.314.201.78.133 1.476.324 2.086.571v-1.342c0-1.315-.372-2.358-1.115-3.13-.743-.771-1.771-1.157-3.086-1.157-.762 0-1.543.153-2.343.457-.8.306-1.61.743-2.429 1.315l-.685-1.286c1.924-1.295 3.79-1.943 5.6-1.943 1.867 0 3.334.524 4.4 1.571 1.067 1.048 1.6 2.496 1.6 4.344v6.715c0 .533.239.8.715.8v1.714c-.324.057-.571.086-.743.086-.495 0-.881-.123-1.157-.372-.276-.247-.424-.59-.443-1.028l-.057-1.172c-.686.896-1.548 1.582-2.586 2.058-1.038.476-2.157.714-3.358.714M133.629 32.252c-.115.057-.282.134-.5.228-.22.096-.472.192-.757.286-.287.096-.61.182-.972.257-.362.076-.743.115-1.143.115-.42 0-.82-.057-1.2-.172-.381-.114-.715-.29-1-.528-.286-.238-.515-.538-.686-.9-.172-.362-.257-.781-.257-1.258V19.622h-2.057V18.08h2.057V13.05h1.943v5.03h3.429v1.542h-3.429v10.116c.038.552.233.957.585 1.214.353.257.758.386 1.215.386.552 0 1.038-.09 1.457-.272.42-.18.686-.31.8-.386l.515 1.572zM147.63 24.737c-.057-.8-.243-1.529-.558-2.186-.313-.657-.713-1.224-1.2-1.7-.485-.476-1.047-.847-1.685-1.114-.639-.267-1.32-.4-2.044-.4-.723 0-1.41.133-2.057.4-.648.267-1.214.638-1.7 1.114-.486.476-.876 1.048-1.171 1.714-.296.667-.472 1.391-.529 2.172h10.944zm-5.487 8.515c-1.085 0-2.08-.205-2.985-.614-.905-.41-1.691-.972-2.358-1.686s-1.185-1.538-1.557-2.472c-.372-.933-.557-1.933-.557-3 0-1.048.185-2.033.557-2.957.372-.924.886-1.734 1.543-2.43.657-.695 1.443-1.247 2.357-1.657.915-.409 1.905-.614 2.972-.614 1.086 0 2.08.205 2.986.614.905.41 1.68.967 2.329 1.672.647.705 1.152 1.514 1.515 2.429.36.914.542 1.886.542 2.914v.458c0 .152-.01.257-.028.314h-12.744c.057.8.242 1.538.557 2.215.314.676.719 1.262 1.214 1.757.495.495 1.062.881 1.7 1.157.639.276 1.32.414 2.044.414.475 0 .952-.066 1.428-.2.476-.133.915-.314 1.315-.543.4-.228.761-.509 1.085-.843.324-.333.572-.7.743-1.1l1.686.457c-.229.553-.552 1.053-.971 1.5-.42.448-.905.839-1.458 1.172-.553.334-1.162.59-1.828.772-.667.18-1.363.271-2.087.271z" transform="translate(0 .263)"/>
            <g transform="translate(0 .263) translate(152.233 17.864)">
                <mask id="prefix__b" fill="#fff">
                    <use xlink:href="#prefix__a"/>
                </mask>
                <path fill="#000" d="M7.684 1.93c-1.315.038-2.458.4-3.43 1.085-.97.686-1.657 1.63-2.057 2.83v9.257H.254V.215h1.83v3.572c.551-1.143 1.294-2.038 2.228-2.686.933-.648 1.933-.972 3-.972.153 0 .276.01.372.029V1.93z" mask="url(#prefix__b)"/>
            </g>
            <path fill="#333" d="M2.758 21.509L14.653 21.509 15.377 22.011 15.377 26.556 28.96 25.119 17.547 25.119 17.547 21.08 15.615 19.636 2.758 19.636z" transform="translate(0 .263)"/>
            <path fill="#FFF" d="M25.659 30.368c1.889 1.2 2.81 3.483 1.801 5.751.397-2.192-.167-4.12-1.801-5.751M8.017 30.368c1.89 1.2 2.81 3.483 1.801 5.751.397-2.192-.167-4.12-1.8-5.751M7.63 22.011L14.269 22.011 14.808 22.399 14.808 26.556 14.201 22.851 13.943 22.541z" transform="translate(0 .263)"/>
            <path fill="#BF9A05" d="M7.062 9.803L8.302 17.518 14.269 17.105 14.269 16.553 8.962 16.202 7.479 9.803z" transform="translate(0 .263)"/>
            <path fill="#FFF" d="M29.27 27.59h-1.964c-.214 0-.388-.174-.388-.389 0-.214.174-.388.388-.388h1.965c.214 0 .388.174.388.388 0 .215-.174.389-.388.389M26.234 27.59H19.56c-.215 0-.389-.174-.389-.389 0-.214.174-.388.389-.388h6.674c.215 0 .389.174.389.388 0 .215-.174.389-.389.389" transform="translate(0 .263)"/>
            <path fill="#957552" d="M37.42 23.352L37.331 23.268 37.335 23.265zM37.143 11.438L37.067 11.366 37.07 11.363z" transform="translate(0 .263)"/>
            <path fill="#C69C6D" d="M35.409 31.809L47.479 31.809 47.479 19.738 35.409 19.738z" transform="translate(0 .263)"/>
            <path fill="#957552" d="M40.147 22.36L42.741 22.36 42.741 19.738 40.147 19.738zM40.147 31.809L42.741 31.809 42.741 29.186 40.147 29.186z" transform="translate(0 .263)"/>
            <path fill="#C69C6D" d="M35.409 18.732L45.82 18.732 45.82 8.321 35.409 8.321z" transform="translate(0 .263)"/>
            <path fill="#957552" d="M39.496 10.582L41.733 10.582 41.733 8.321 39.496 8.321zM39.496 18.732L41.733 18.732 41.733 16.47 39.496 16.47z" transform="translate(0 .263)"/>
            <path fill="#C69C6D" d="M35.409 6.97L42.227 6.97 42.227 0.152 35.409 0.152z" transform="translate(0 .263)"/>
            <path fill="#957552" d="M38.085 1.633L39.55 1.633 39.55.152 38.085.152zM38.085 6.97L39.55 6.97 39.55 5.489 38.085 5.489z" transform="translate(0 .263)"/>
            <path fill="#FECD07" d="M6.23 29.47c-1.379 0-2.615.6-3.473 1.549v4.226h8.023c.084-.352.133-.716.133-1.092 0-2.587-2.096-4.684-4.683-4.684" transform="translate(0 .263)"/>
            <path fill="#FECD07" d="M2.758 27.856v1.985c.95-.768 2.158-1.23 3.473-1.23 3.055 0 5.54 2.486 5.54 5.541 0 .374-.038.74-.109 1.093h6.657c-.07-.354-.109-.719-.109-1.093 0-3.055 2.486-5.54 5.541-5.54s5.54 2.485 5.54 5.54c0 .374-.038.74-.109 1.093h1.437v-7.389H2.758z" transform="translate(0 .263)"/>
            <path fill="#000" d="M23.751 38.835c-2.582 0-4.683-2.101-4.683-4.683s2.1-4.683 4.683-4.683c2.582 0 4.683 2.101 4.683 4.683s-2.101 4.683-4.683 4.683" transform="translate(0 .263)"/>
            <path fill="#FFF" d="M23.751 32.084c-1.14 0-2.068.928-2.068 2.068 0 1.14.927 2.068 2.068 2.068 1.14 0 2.068-.928 2.068-2.068 0-1.14-.927-2.068-2.068-2.068" transform="translate(0 .263)"/>
            <path fill="#000" d="M6.23 38.835c-2.582 0-4.683-2.101-4.683-4.683S3.648 29.47 6.23 29.47s4.683 2.101 4.683 4.683-2.1 4.683-4.683 4.683" transform="translate(0 .263)"/>
            <path fill="#FFF" d="M6.27 36.06c-1.052 0-1.909-.856-1.909-1.908s.857-1.908 1.908-1.908c1.052 0 1.908.856 1.908 1.908S7.321 36.06 6.27 36.06" transform="translate(0 .263)"/>
        </g>
    </g>
</svg>
